<?xml version="1.0" encoding="UTF-8"?>
<!DOCTYPE svg PUBLIC "-//W3C//DTD SVG 1.1//EN" "http://www.w3.org/Graphics/SVG/1.1/DTD/svg11.dtd">
<!-- Creator: CorelDRAW -->
<svg xmlns="http://www.w3.org/2000/svg" xml:space="preserve" width="2048px" height="2048px" style="shape-rendering:geometricPrecision; text-rendering:geometricPrecision; image-rendering:optimizeQuality; fill-rule:evenodd; clip-rule:evenodd"
viewBox="0 0 2048 2048"
 xmlns:xlink="http://www.w3.org/1999/xlink">
 <defs>
  <style type="text/css">
   <![CDATA[
    .fil9 {fill:none}
    .fil4 {fill:#202020}
    .fil2 {fill:#414141}
    .fil1 {fill:#636364}
    .fil0 {fill:#767676}
    .fil6 {fill:#7F7F7F}
    .fil5 {fill:#8B8B8B}
    .fil8 {fill:#BEBEBE}
    .fil7 {fill:#E1E1E2}
    .fil3 {fill:#414141;fill-rule:nonzero}
   ]]>
  </style>
 </defs>
 <g id="Layer_x0020_1">
  <metadata id="CorelCorpID_0Corel-Layer"/>
  <g id="_459778328">
   <path id="_308811312" class="fil0" d="M320 987.259l1408 0 0 574.002c0,27.5008 -22.4988,49.9996 -49.9996,49.9996l-1308 0c-27.5008,0 -49.9996,-22.4988 -49.9996,-49.9996l0 -574.002z"/>
   <g>
    <polygon id="_308816736" class="fil1" points="688.077,1611.26 603.675,1611.26 603.675,1531.26 688.077,1531.26 "/>
    <polygon id="_308815752" class="fil1" points="839.326,1611.26 754.925,1611.26 754.925,1531.26 839.326,1531.26 "/>
    <polygon id="_308816784" class="fil1" points="990.576,1611.26 906.174,1611.26 906.174,1531.26 990.576,1531.26 "/>
    <polygon id="_308811912" class="fil1" points="1141.83,1611.26 1057.42,1611.26 1057.42,1531.26 1141.83,1531.26 "/>
    <polygon id="_308810592" class="fil1" points="1293.08,1611.26 1208.67,1611.26 1208.67,1531.26 1293.08,1531.26 "/>
    <polygon id="_308816472" class="fil1" points="1444.33,1611.26 1359.92,1611.26 1359.92,1531.26 1444.33,1531.26 "/>
   </g>
   <g>
    <path id="_308816976" class="fil2" d="M494.578 1620.74l-113.49 0c-40.0122,0 -72.7477,-32.7355 -72.7477,-72.7489l0 -90.2115 81.5965 0c-0.00708662,0.462992 -0.0188977,0.924804 -0.0188977,1.38898 0,50.8961 41.2583,92.1544 92.1544,92.1544 4.2437,0 8.41536,-0.292914 12.5055,-0.848032l0 70.265z"/>
    <path id="_459782648" class="fil2" d="M1553.42 1620.74l113.49 0c40.0122,0 72.7477,-32.7355 72.7477,-72.7489l0 -90.2115 -81.5965 0c0.00708662,0.462992 0.0188977,0.924804 0.0188977,1.38898 0,50.8961 -41.2583,92.1544 -92.1544,92.1544 -4.2437,0 -8.41536,-0.292914 -12.5055,-0.848032l0 70.265z"/>
   </g>
   <path id="_459782528" class="fil3" d="M736.001 683.26l575.999 0 0 -123.999c0,-18.6662 -7.65945,-35.6611 -19.9984,-48 -12.339,-12.339 -29.3339,-19.9984 -48,-19.9984l-440.002 0c-18.6662,0 -35.6611,7.65945 -48,19.9984 -12.339,12.339 -19.9984,29.3339 -19.9984,48l0 123.999zm608 64.0016l-640.001 0 -32.0008 0 0 -32.0008 0 -156c0,-36.3331 14.8417,-69.3414 38.7496,-93.2505 23.9091,-23.9079 56.9174,-38.7496 93.2505,-38.7496l440.002 0c36.3331,0 69.3414,14.8417 93.2505,38.7496 23.9079,23.9091 38.7496,56.9174 38.7496,93.2505l0 156 0 32.0008 -32.0008 0z"/>
   <path id="_459782408" class="fil4" d="M1294.37 659.275l102.124 0c7.48229,0 13.6039,6.12166 13.6039,13.6039l0 13.6039 -129.332 0 0 -13.6039c0,-7.48229 6.12166,-13.6039 13.6039,-13.6039z"/>
   <path id="_459782288" class="fil4" d="M653.605 659.275l102.124 0c7.48229,0 13.6039,6.12166 13.6039,13.6039l0 13.6039 -129.332 0 0 -13.6039c0,-7.48229 6.12166,-13.6039 13.6039,-13.6039z"/>
   <path id="_459782120" class="fil5" d="M388 683.26l1272 0c36.3331,0 69.3414,14.8417 93.2505,38.7496 23.9079,23.9091 38.7496,56.9174 38.7496,93.2505l0 156 0 32.0008 -32.0008 0 -31.7351 0c-422.455,0 -984.596,0 -1408.53,0l-31.7351 0 -32.0008 0 0 -32.0008 0 -156c0,-36.3331 14.8417,-69.3414 38.7496,-93.2505 23.9091,-23.9079 56.9174,-38.7496 93.2505,-38.7496z"/>
   <path id="_459781952" class="fil6" d="M388 683.26l1272 0c36.3331,0 69.3414,14.8417 93.2505,38.7496 19.4362,19.4374 32.8807,44.8878 37.2296,73.2497l-1532.96 0c4.34882,-28.3618 17.7933,-53.8122 37.2296,-73.2497 23.9091,-23.9079 56.9174,-38.7496 93.2505,-38.7496z"/>
   <g>
    <g>
     <polygon id="_459781784" class="fil1" points="403.366,1403.26 320,1403.26 320,1147.26 403.366,1147.26 "/>
     <polygon id="_459781616" class="fil1" points="552.758,1403.26 469.393,1403.26 469.393,1147.26 552.758,1147.26 "/>
     <polygon id="_459781448" class="fil1" points="702.151,1403.26 618.786,1403.26 618.786,1147.26 702.151,1147.26 "/>
     <polygon id="_459781280" class="fil1" points="851.544,1403.26 768.178,1403.26 768.178,1147.26 851.544,1147.26 "/>
     <polygon id="_459781112" class="fil1" points="1000.94,1403.26 917.571,1403.26 917.571,1147.26 1000.94,1147.26 "/>
     <polygon id="_459780872" class="fil1" points="1150.33,1403.26 1066.96,1403.26 1066.96,1147.26 1150.33,1147.26 "/>
    </g>
    <polygon id="_459780728" class="fil1" points="1279.82,1403.26 1196.46,1403.26 1196.46,1147.26 1279.82,1147.26 "/>
    <polygon id="_459780560" class="fil1" points="1429.21,1403.26 1345.85,1403.26 1345.85,1147.26 1429.21,1147.26 "/>
    <polygon id="_459780392" class="fil1" points="1578.61,1403.26 1495.24,1403.26 1495.24,1147.26 1578.61,1147.26 "/>
    <polygon id="_459780224" class="fil1" points="1728,1403.26 1644.63,1403.26 1644.63,1147.26 1728,1147.26 "/>
   </g>
   <g>
    <g>
     <g>
      <rect id="_459780056" class="fil1" x="504.342" y="907.508" width="38.0103" height="95.7532"/>
      <rect id="_459779864" class="fil1" x="627.492" y="907.508" width="38.0103" height="95.7532"/>
     </g>
     <path id="_459779720" class="fil7" d="M540.13 898.538l89.5831 0 0 133.648 -19.9996 19.9996 -49.5839 0 -19.9996 -19.9996 0 -133.648zm20.3126 25.1303l48.9591 0 0 55.7292 -48.9591 0 0 -55.7292z"/>
     <rect id="_459779600" class="fil8" x="560.373" y="994.331" width="49.0288" height="6.44528" rx="3.22323" ry="3.22323"/>
     <rect id="_459779480" class="fil8" x="560.373" y="1009.37" width="49.0288" height="6.44528" rx="3.22323" ry="3.22323"/>
     <rect id="_459779360" class="fil8" x="560.373" y="1024.41" width="49.0288" height="6.44528" rx="3.22323" ry="3.22323"/>
    </g>
    <g>
     <g>
      <rect id="_459779192" class="fil1" x="1382.5" y="907.508" width="38.0103" height="95.7532"/>
      <rect id="_459779000" class="fil1" x="1505.65" y="907.508" width="38.0103" height="95.7532"/>
     </g>
     <path id="_459778856" class="fil7" d="M1418.29 898.538l89.5831 0 0 133.648 -19.9996 19.9996 -49.5839 0 -19.9996 -19.9996 0 -133.648zm20.3126 25.1303l48.9591 0 0 55.7292 -48.9591 0 0 -55.7292z"/>
     <rect id="_459778736" class="fil8" x="1438.53" y="994.331" width="49.0288" height="6.44528" rx="3.22323" ry="3.22323"/>
     <rect id="_459778616" class="fil8" x="1438.53" y="1009.37" width="49.0288" height="6.44528" rx="3.22323" ry="3.22323"/>
     <rect id="_459778544" class="fil8" x="1438.53" y="1024.41" width="49.0288" height="6.44528" rx="3.22323" ry="3.22323"/>
    </g>
   </g>
  </g>
  <rect class="fil9" width="2048" height="2048"/>
 </g>
</svg>
